<svg xmlns="http://www.w3.org/2000/svg" viewBox="1727 476 60 35.087"><defs><style>.a{fill:#fff;}.b{fill:none;stroke:#000;stroke-linecap:round;stroke-width:2px;}</style></defs><g transform="translate(1727 476.1)"><path class="a" d="M10.956,22.7a11.072,11.072,0,0,1,4.486.944,9.123,9.123,0,0,1,3.306,2.645,10.626,10.626,0,0,1,2.125,3.825,15.138,15.138,0,0,1,.708,4.675v9.634a2.125,2.125,0,1,1-4.25,0V34.836c0-.567-.047-1.086-.094-1.606a5.08,5.08,0,0,0-.331-1.464,7.01,7.01,0,0,0-1.181-2.55,5.213,5.213,0,0,0-1.936-1.7,6.038,6.038,0,0,0-2.881-.614,5.72,5.72,0,0,0-2.833.614,4.369,4.369,0,0,0-1.983,1.7,7.01,7.01,0,0,0-1.181,2.55,13.986,13.986,0,0,0-.378,3.07h0v9.539A2.1,2.1,0,0,1,2.408,46.5H2.125A2.1,2.1,0,0,1,0,44.376V33.656a10.842,10.842,0,0,1,.85-4.25,11.007,11.007,0,0,1,2.314-3.495A11.136,11.136,0,0,1,6.659,23.55,10.9,10.9,0,0,1,10.956,22.7Z" transform="translate(0 -12.033)"/><path class="a" d="M67.617,32.579a2.419,2.419,0,1,1-.708-1.7A2.319,2.319,0,0,1,67.617,32.579Zm0-6.47a2.474,2.474,0,0,1-.661,1.7,2.215,2.215,0,0,1-1.653.708,2.419,2.419,0,0,1-2.408-2.408V2.308A2.319,2.319,0,0,1,63.6.608,2.319,2.319,0,0,1,65.3-.1a2.215,2.215,0,0,1,1.653.708,2.276,2.276,0,0,1,.661,1.7Z" transform="translate(-33.144 0)"/><path class="a" d="M101.231,25.556l6.045,5.95a1.865,1.865,0,0,1,.567,1.133,2.008,2.008,0,0,1-.142,1.181,2.274,2.274,0,0,1-.708.944,1.817,1.817,0,0,1-1.228.378,2.277,2.277,0,0,1-1.417-.519l-7.225-6.611a1.616,1.616,0,0,0-1.181-.378A1.157,1.157,0,0,0,95,28.72v4.345a2.067,2.067,0,0,1-.614,1.511,2.1,2.1,0,0,1-1.558.614A2.1,2.1,0,0,1,90.7,33.065V3.172a2.067,2.067,0,0,1,.614-1.511,2.166,2.166,0,0,1,3.07-.047A2.067,2.067,0,0,1,95,3.125V18a1.1,1.1,0,0,0,.708,1.133,1.18,1.18,0,0,0,1.369-.283l6.895-6.517a2.032,2.032,0,0,1,1.464-.567,2.1,2.1,0,0,1,1.228.378,2.012,2.012,0,0,1,.708.944,2.475,2.475,0,0,1,.142,1.181,2.159,2.159,0,0,1-.567,1.133l-5.714,5.714a3.073,3.073,0,0,0-.944,2.22A2.9,2.9,0,0,0,101.231,25.556Z" transform="translate(-47.868 -0.581)"/><path class="b" d="M4.2,39" transform="translate(-2.217 -20.636)"/></g></svg>