<svg xmlns="http://www.w3.org/2000/svg" viewBox="1789.75 4152 158.5 84.972"><defs><style>.a{fill:#4a4a4a;}.b{fill:none;stroke:#f9f9f9;stroke-linecap:round;stroke-width:2px;}</style></defs><g transform="translate(1789.75 4152.1)"><path class="a" d="M28.942,22.7a31.528,31.528,0,0,1,11.851,2.287,23.848,23.848,0,0,1,8.732,6.4,25.236,25.236,0,0,1,5.614,9.263A33.863,33.863,0,0,1,57.01,51.977v23.33a4.8,4.8,0,0,1-1.622,3.66,6.1,6.1,0,0,1-7.984,0,4.8,4.8,0,0,1-1.622-3.66V52.091a38.4,38.4,0,0,0-.249-3.888,11.446,11.446,0,0,0-.873-3.545,16.371,16.371,0,0,0-3.119-6.176,13.472,13.472,0,0,0-5.115-4.117,17.17,17.17,0,0,0-7.61-1.487,16.257,16.257,0,0,0-7.485,1.487,11.322,11.322,0,0,0-5.239,4.117,16.371,16.371,0,0,0-3.119,6.176,31.2,31.2,0,0,0-1,7.434h0v23.1a4.8,4.8,0,0,1-1.622,3.66,5.729,5.729,0,0,1-3.992,1.487H5.614a5.729,5.729,0,0,1-3.992-1.487A4.8,4.8,0,0,1,0,75.192V49.232A24.377,24.377,0,0,1,2.245,38.939a26.6,26.6,0,0,1,6.113-8.463,29.69,29.69,0,0,1,9.231-5.718A31.088,31.088,0,0,1,28.942,22.7Z" transform="translate(0 3.275)"/><path class="a" d="M75.524,79.039a5.392,5.392,0,0,1-1.871,4.117,6.736,6.736,0,0,1-8.982,0,5.465,5.465,0,0,1,0-8.234,6.736,6.736,0,0,1,8.982,0A5.392,5.392,0,0,1,75.524,79.039Zm0-15.668a5.727,5.727,0,0,1-1.746,4.117A6.117,6.117,0,0,1,69.412,69.2a6.414,6.414,0,0,1-4.491-1.715,5.392,5.392,0,0,1-1.871-4.117V5.732a5.392,5.392,0,0,1,1.871-4.117A6.414,6.414,0,0,1,69.412-.1a6.117,6.117,0,0,1,4.366,1.715,5.272,5.272,0,0,1,1.746,4.117Z" transform="translate(15.542)"/><path class="a" d="M118.519,60.469l15.968,14.41a4.388,4.388,0,0,1,1.5,2.745,4.5,4.5,0,0,1-.374,2.859,5.575,5.575,0,0,1-1.871,2.287,5.1,5.1,0,0,1-3.243.915,6.356,6.356,0,0,1-3.742-1.258L107.666,66.415a4.532,4.532,0,0,0-3.119-.915,2.585,2.585,0,0,0-1.747.915,2.23,2.23,0,0,0-.748,1.715V78.652a4.8,4.8,0,0,1-1.622,3.66A5.825,5.825,0,0,1,96.314,83.8a5.728,5.728,0,0,1-3.992-1.487,4.8,4.8,0,0,1-1.622-3.66V6.261A4.8,4.8,0,0,1,92.322,2.6a6.094,6.094,0,0,1,8.109-.114,4.8,4.8,0,0,1,1.622,3.66V42.171a2.669,2.669,0,0,0,1.871,2.745,3.321,3.321,0,0,0,3.618-.686l18.213-15.782a5.643,5.643,0,0,1,3.867-1.372,5.917,5.917,0,0,1,3.243.915,4.936,4.936,0,0,1,1.871,2.287,5.533,5.533,0,0,1,.374,2.859,5.079,5.079,0,0,1-1.5,2.745L118.519,49.718a7.157,7.157,0,0,0-2.495,5.375A6.752,6.752,0,0,0,118.519,60.469Z" transform="translate(22.447 0.158)"/><path class="b" d="M26.156,25.9A25.565,25.565,0,0,0,4.2,40.881" transform="translate(1.039 3.734)"/><line class="b" y2="7.434" transform="translate(82.334 6.99)"/><line class="b" y2="7.434" transform="translate(3.493 55.709)"/><line class="b" y2="16.583" transform="translate(82.334 22.201)"/><line class="b" y2="10.521" transform="translate(116.39 9.392)"/><line class="b" y2="26.075" transform="translate(116.39 47.017)"/><path class="b" d="M68.667,66.408s-3.368-.8-3.867,3.2" transform="translate(16.037 9.543)"/></g></svg>